<svg width="24" height="41" viewBox="0 0 24 41" fill="none" xmlns="http://www.w3.org/2000/svg">
<path d="M13.5 2C13.5 1.17157 12.8284 0.5 12 0.5C11.1716 0.5 10.5 1.17157 10.5 2L13.5 2ZM10.9393 40.0607C11.5251 40.6464 12.4749 40.6464 13.0607 40.0607L22.6066 30.5147C23.1924 29.9289 23.1924 28.9792 22.6066 28.3934C22.0208 27.8076 21.0711 27.8076 20.4853 28.3934L12 36.8787L3.51472 28.3934C2.92893 27.8076 1.97918 27.8076 1.3934 28.3934C0.80761 28.9792 0.80761 29.9289 1.3934 30.5147L10.9393 40.0607ZM10.5 2L10.5 39L13.5 39L13.5 2L10.5 2Z" fill="white"/>
</svg>
