<svg width="224" height="60" viewBox="0 0 224 60" fill="none" xmlns="http://www.w3.org/2000/svg">
<path d="M55.6533 16.5176C55.6533 18.5137 55.0335 19.9264 53.7939 20.7559C52.5544 21.5853 50.5218 22 47.6963 22H38.6318V2.39453H48.1748C52.5042 2.39453 54.6689 4.12174 54.6689 7.57617C54.6689 8.15039 54.5687 8.69271 54.3682 9.20312C54.1768 9.71354 53.9307 10.1146 53.6299 10.4062C53.0465 10.9714 52.5179 11.3451 52.0439 11.5273L51.7295 11.6094V11.8145C51.848 11.8327 51.9938 11.86 52.167 11.8965C52.3584 11.9421 52.6729 12.0697 53.1104 12.2793C53.5843 12.5254 53.9808 12.7943 54.2998 13.0859C54.6735 13.4232 54.9925 13.9017 55.2568 14.5215C55.5212 15.1322 55.6533 15.7975 55.6533 16.5176ZM51.0322 16.0664C51.0322 14.4258 49.9886 13.6055 47.9014 13.6055H43.0479V18.5H47.9014C49.9886 18.5 51.0322 17.6888 51.0322 16.0664ZM50.0479 8.16406C50.0479 6.65104 49.1455 5.89453 47.3408 5.89453H43.0479V10.4609H47.3408C49.1455 10.4609 50.0479 9.69531 50.0479 8.16406ZM59.1533 8H63.1865V15.0547C63.1865 16.2305 63.501 17.1328 64.1299 17.7617C64.7588 18.3815 65.6292 18.6914 66.7412 18.6914C67.8805 18.6914 68.7601 18.3542 69.3799 17.6797C69.9906 17.0143 70.2959 16.1393 70.2959 15.0547V8H74.3291V22H70.2959V19.6758H70.0771C69.9678 19.9128 69.7536 20.209 69.4346 20.5645C69.1611 20.8743 68.8604 21.1432 68.5322 21.3711C68.1676 21.6263 67.6663 21.8405 67.0283 22.0137C66.3994 22.1868 65.734 22.2734 65.0322 22.2734C63.2731 22.2734 61.8558 21.763 60.7803 20.7422C59.6956 19.7305 59.1533 18.2083 59.1533 16.1758V8ZM78.2393 2.39453H82.2725V22H78.2393V2.39453ZM96.0264 8H100.757L94.7686 14.8086L101.263 22H96.5049L90.2295 15.1367V22H86.1963V2.39453H90.2295V14.5488L96.0264 8ZM102.097 18.0488C102.097 16.6087 102.689 15.5286 103.874 14.8086C105.059 14.0977 106.558 13.7422 108.372 13.7422C109.311 13.7422 110.154 13.8379 110.901 14.0293C111.649 14.2389 112.168 14.4303 112.46 14.6035L112.911 14.918V12.8672C112.911 12.2656 112.683 11.7598 112.228 11.3496C111.772 10.9486 111.011 10.748 109.944 10.748C109.179 10.748 108.495 10.8893 107.894 11.1719C107.265 11.4635 106.95 11.9102 106.95 12.5117H102.808C102.817 10.9167 103.464 9.7181 104.749 8.91602C106.025 8.12305 107.757 7.72656 109.944 7.72656C112.159 7.72656 113.877 8.15495 115.099 9.01172C116.329 9.86849 116.944 11.1536 116.944 12.8672V17.2422C116.944 17.8073 117.013 18.1992 117.149 18.418C117.286 18.6367 117.523 18.7461 117.86 18.7461L118.448 18.6367V22C118.102 22.1823 117.523 22.2734 116.712 22.2734C115.664 22.2734 114.871 22.0456 114.333 21.5898C113.85 21.1979 113.545 20.8379 113.417 20.5098L113.335 20.3184H113.13C113.13 20.3548 113.084 20.4368 112.993 20.5645C112.902 20.6829 112.724 20.847 112.46 21.0566C112.205 21.2663 111.899 21.4531 111.544 21.6172C110.614 22.0547 109.397 22.2734 107.894 22.2734C106.235 22.2734 104.854 21.9134 103.751 21.1934C102.648 20.4824 102.097 19.4342 102.097 18.0488ZM109.548 19.2246C110.268 19.2246 110.915 19.1335 111.489 18.9512C112.036 18.778 112.414 18.6003 112.624 18.418L112.911 18.1582V17.3242C112.838 17.2513 112.743 17.1738 112.624 17.0918C112.469 16.9915 112.109 16.8685 111.544 16.7227C110.942 16.5677 110.277 16.4902 109.548 16.4902C107.342 16.4902 106.239 16.946 106.239 17.8574C106.239 18.7689 107.342 19.2246 109.548 19.2246ZM134.39 12.334H130.247C130.247 12.097 130.224 11.9102 130.179 11.7734C130.133 11.6367 130.033 11.4727 129.878 11.2812C129.559 10.9076 128.748 10.7207 127.444 10.7207C125.713 10.7207 124.847 11.1491 124.847 12.0059C124.847 12.416 125.198 12.7122 125.899 12.8945C126.574 13.0768 127.422 13.2181 128.442 13.3184C129.527 13.4186 130.525 13.5645 131.437 13.7559C132.421 13.9564 133.269 14.3984 133.979 15.082C134.681 15.7565 135.032 16.6634 135.032 17.8027C135.032 20.8014 132.585 22.2917 127.69 22.2734C122.841 22.2734 120.417 20.6875 120.417 17.5156V17.0781H124.56V17.5156C124.56 18.1445 124.806 18.5957 125.298 18.8691C125.79 19.1426 126.588 19.2793 127.69 19.2793C129.805 19.2793 130.871 18.8053 130.89 17.8574C130.89 17.4473 130.639 17.1283 130.138 16.9004C129.646 16.6908 129.012 16.5495 128.237 16.4766C127.435 16.4219 126.619 16.3216 125.79 16.1758C124.906 16.0208 124.09 15.8294 123.343 15.6016C122.604 15.3737 121.976 14.9453 121.456 14.3164C120.946 13.6966 120.69 12.9173 120.69 11.9785C120.69 10.5931 121.301 9.53581 122.522 8.80664C123.735 8.08659 125.403 7.72656 127.526 7.72656C132.102 7.71745 134.39 9.25326 134.39 12.334ZM40.8193 44.5527C38.9873 42.748 38.0713 40.2962 38.0713 37.1973C38.0713 34.1074 38.9873 31.651 40.8193 29.8281C42.6423 28.0234 45.1123 27.1211 48.2295 27.1211C51.2191 27.1211 53.6253 27.8867 55.4482 29.418C57.262 30.9492 58.1689 32.8724 58.1689 35.1875H53.4385C53.4294 35.0781 53.402 34.9277 53.3564 34.7363C53.3109 34.5358 53.1833 34.2031 52.9736 33.7383C52.7367 33.2552 52.4541 32.8359 52.126 32.4805C51.7887 32.1159 51.2829 31.7832 50.6084 31.4824C49.9157 31.1908 49.1227 31.0449 48.2295 31.0449C46.4704 31.0449 45.1077 31.6237 44.1416 32.7812C43.1755 33.9388 42.6924 35.4108 42.6924 37.1973C42.6924 38.9837 43.18 40.4603 44.1553 41.627C45.1214 42.7845 46.4795 43.3633 48.2295 43.3633C49.0863 43.3633 49.861 43.2266 50.5537 42.9531C51.2464 42.6797 51.7751 42.3288 52.1396 41.9004C52.8688 41.0436 53.2744 40.2871 53.3564 39.6309L53.4385 39.2207H58.1689C58.1689 41.5449 57.262 43.4635 55.4482 44.9766C53.6253 46.5078 51.2191 47.2734 48.2295 47.2734C45.1032 47.2734 42.6331 46.3665 40.8193 44.5527ZM69.0928 47.2734C66.723 47.2734 64.7998 46.6309 63.3232 45.3457C61.8467 44.0605 61.1084 42.2786 61.1084 40C61.1084 37.7214 61.8467 35.9395 63.3232 34.6543C64.7998 33.3691 66.723 32.7266 69.0928 32.7266C71.4626 32.7266 73.3857 33.3691 74.8623 34.6543C76.3389 35.9395 77.0771 37.7214 77.0771 40C77.0771 42.2786 76.3389 44.0605 74.8623 45.3457C73.3857 46.6309 71.4626 47.2734 69.0928 47.2734ZM69.0928 43.8145C70.2868 43.8145 71.2256 43.459 71.9092 42.748C72.5928 42.0371 72.9346 41.1211 72.9346 40C72.9346 38.8789 72.5928 37.9629 71.9092 37.252C71.2256 36.541 70.2868 36.1855 69.0928 36.1855C67.8896 36.1855 66.9554 36.541 66.29 37.252C65.6064 37.9629 65.2646 38.8789 65.2646 40C65.2646 41.1211 65.6064 42.0371 66.29 42.748C66.9554 43.459 67.8896 43.8145 69.0928 43.8145ZM89.5596 32.7266L90.9541 32.8633V37.3066C90.3525 37.0241 89.5413 36.8874 88.5205 36.8965C87.2171 36.8965 86.2145 37.2611 85.5127 37.9902C84.8109 38.7376 84.46 39.6764 84.46 40.8066V47H80.4268V33H84.46V35.5703H84.6924C84.8382 35.2422 85.0433 34.9141 85.3076 34.5859C85.5719 34.2487 85.8682 33.957 86.1963 33.7109C86.57 33.4375 87.0576 33.2051 87.6592 33.0137C88.2607 32.8223 88.8942 32.7266 89.5596 32.7266ZM107.935 34.6816C109.229 35.9759 109.876 37.7487 109.876 40C109.876 42.2513 109.229 44.0241 107.935 45.3184C106.631 46.6217 105.018 47.2734 103.095 47.2734C102.037 47.2734 101.099 47.1048 100.278 46.7676C99.4398 46.4395 98.8656 46.1068 98.5557 45.7695L98.1182 45.291H97.9404V52.6055H93.9072V33H97.9404V35.2969H98.1455C98.2367 35.0964 98.4691 34.7956 98.8428 34.3945C99.1344 34.1029 99.4489 33.8431 99.7861 33.6152C100.16 33.3691 100.643 33.1595 101.235 32.9863C101.837 32.8132 102.457 32.7266 103.095 32.7266C105.018 32.7266 106.631 33.3783 107.935 34.6816ZM104.681 42.6523C105.382 41.9688 105.733 41.0846 105.733 40C105.733 38.9245 105.382 38.0358 104.681 37.334C103.979 36.6504 103.031 36.3086 101.837 36.3086C100.643 36.3086 99.695 36.6504 98.9932 37.334C98.2913 38.0358 97.9404 38.9245 97.9404 40C97.9404 41.112 98.2959 42.0007 99.0068 42.666C99.7178 43.3496 100.661 43.6914 101.837 43.6914C103.04 43.6914 103.988 43.3451 104.681 42.6523ZM120.663 47.2734C118.293 47.2734 116.37 46.6309 114.894 45.3457C113.417 44.0605 112.679 42.2786 112.679 40C112.679 37.7214 113.417 35.9395 114.894 34.6543C116.37 33.3691 118.293 32.7266 120.663 32.7266C123.033 32.7266 124.956 33.3691 126.433 34.6543C127.909 35.9395 128.647 37.7214 128.647 40C128.647 42.2786 127.909 44.0605 126.433 45.3457C124.956 46.6309 123.033 47.2734 120.663 47.2734ZM120.663 43.8145C121.857 43.8145 122.796 43.459 123.479 42.748C124.163 42.0371 124.505 41.1211 124.505 40C124.505 38.8789 124.163 37.9629 123.479 37.252C122.796 36.541 121.857 36.1855 120.663 36.1855C119.46 36.1855 118.526 36.541 117.86 37.252C117.177 37.9629 116.835 38.8789 116.835 40C116.835 41.1211 117.177 42.0371 117.86 42.748C118.526 43.459 119.46 43.8145 120.663 43.8145ZM141.13 32.7266L142.524 32.8633V37.3066C141.923 37.0241 141.112 36.8874 140.091 36.8965C138.787 36.8965 137.785 37.2611 137.083 37.9902C136.381 38.7376 136.03 39.6764 136.03 40.8066V47H131.997V33H136.03V35.5703H136.263C136.409 35.2422 136.614 34.9141 136.878 34.5859C137.142 34.2487 137.438 33.957 137.767 33.7109C138.14 33.4375 138.628 33.2051 139.229 33.0137C139.831 32.8223 140.465 32.7266 141.13 32.7266ZM144.343 43.0488C144.343 41.6087 144.935 40.5286 146.12 39.8086C147.305 39.0977 148.804 38.7422 150.618 38.7422C151.557 38.7422 152.4 38.8379 153.147 39.0293C153.895 39.2389 154.414 39.4303 154.706 39.6035L155.157 39.918V37.8672C155.157 37.2656 154.929 36.7598 154.474 36.3496C154.018 35.9486 153.257 35.748 152.19 35.748C151.425 35.748 150.741 35.8893 150.14 36.1719C149.511 36.4635 149.196 36.9102 149.196 37.5117H145.054C145.063 35.9167 145.71 34.7181 146.995 33.916C148.271 33.123 150.003 32.7266 152.19 32.7266C154.405 32.7266 156.123 33.1549 157.345 34.0117C158.575 34.8685 159.19 36.1536 159.19 37.8672V42.2422C159.19 42.8073 159.259 43.1992 159.396 43.418C159.532 43.6367 159.769 43.7461 160.106 43.7461L160.694 43.6367V47C160.348 47.1823 159.769 47.2734 158.958 47.2734C157.91 47.2734 157.117 47.0456 156.579 46.5898C156.096 46.1979 155.791 45.8379 155.663 45.5098L155.581 45.3184H155.376C155.376 45.3548 155.33 45.4368 155.239 45.5645C155.148 45.6829 154.97 45.847 154.706 46.0566C154.451 46.2663 154.146 46.4531 153.79 46.6172C152.86 47.0547 151.644 47.2734 150.14 47.2734C148.481 47.2734 147.1 46.9134 145.997 46.1934C144.894 45.4824 144.343 44.4342 144.343 43.0488ZM151.794 44.2246C152.514 44.2246 153.161 44.1335 153.735 43.9512C154.282 43.778 154.66 43.6003 154.87 43.418L155.157 43.1582V42.3242C155.084 42.2513 154.989 42.1738 154.87 42.0918C154.715 41.9915 154.355 41.8685 153.79 41.7227C153.188 41.5677 152.523 41.4902 151.794 41.4902C149.588 41.4902 148.485 41.946 148.485 42.8574C148.485 43.7689 149.588 44.2246 151.794 44.2246ZM164.017 41.709V36.2539H161.966V33.9297L165.862 30.1973H168.05V33H172.411V36.2539H168.05V41.1758C168.05 42.224 168.287 42.944 168.761 43.3359C169.235 43.7279 169.909 43.9238 170.784 43.9238C171.131 43.9238 171.472 43.8828 171.81 43.8008C172.156 43.7188 172.411 43.6276 172.575 43.5273L172.835 43.418V46.7812C172.142 47.1185 171.263 47.2826 170.196 47.2734C168.127 47.2734 166.578 46.8223 165.548 45.9199C164.527 45.0176 164.017 43.6139 164.017 41.709ZM175.911 33H179.944V47H175.911V33ZM176.294 30.3066C175.893 29.9785 175.692 29.5319 175.692 28.9668C175.692 28.4199 175.893 27.9733 176.294 27.627C176.686 27.2897 177.233 27.1211 177.935 27.1211C178.636 27.1211 179.183 27.2897 179.575 27.627C179.976 27.9733 180.177 28.4199 180.177 28.9668C180.177 29.5319 179.976 29.9785 179.575 30.3066C179.183 30.6439 178.636 30.8125 177.935 30.8125C177.233 30.8125 176.686 30.6439 176.294 30.3066ZM191.292 47.2734C188.922 47.2734 186.999 46.6309 185.522 45.3457C184.046 44.0605 183.308 42.2786 183.308 40C183.308 37.7214 184.046 35.9395 185.522 34.6543C186.999 33.3691 188.922 32.7266 191.292 32.7266C193.662 32.7266 195.585 33.3691 197.062 34.6543C198.538 35.9395 199.276 37.7214 199.276 40C199.276 42.2786 198.538 44.0605 197.062 45.3457C195.585 46.6309 193.662 47.2734 191.292 47.2734ZM191.292 43.8145C192.486 43.8145 193.425 43.459 194.108 42.748C194.792 42.0371 195.134 41.1211 195.134 40C195.134 38.8789 194.792 37.9629 194.108 37.252C193.425 36.541 192.486 36.1855 191.292 36.1855C190.089 36.1855 189.155 36.541 188.489 37.252C187.806 37.9629 187.464 38.8789 187.464 40C187.464 41.1211 187.806 42.0371 188.489 42.748C189.155 43.459 190.089 43.8145 191.292 43.8145ZM217.802 47H213.769V39.9453C213.769 38.7695 213.454 37.8717 212.825 37.252C212.205 36.623 211.335 36.3086 210.214 36.3086C209.075 36.3086 208.2 36.6413 207.589 37.3066C206.969 37.9811 206.659 38.8607 206.659 39.9453V47H202.626V33H206.659V35.3242H206.892C206.992 35.1055 207.206 34.8047 207.534 34.4219C207.817 34.112 208.118 33.8477 208.437 33.6289C208.81 33.3737 209.312 33.1595 209.94 32.9863C210.569 32.8132 211.23 32.7266 211.923 32.7266C213.682 32.7266 215.104 33.2324 216.188 34.2441C217.264 35.265 217.802 36.7917 217.802 38.8242V47Z" fill="white"/>
<path d="M29.6082 47.6644L33.6541 25.3029L30.0439 0.0539711L27.3391 21.037L14.2172 16.3203L2.88368 3.1464L10.4543 19.6362L24.9771 27.326L6.54987 32.4749L0.991205 43.7041L10.6668 35.1388L24.7759 32.4972L29.6082 47.6644Z" fill="white"/>
</svg>
